<?xml version="1.0" standalone="no"?><!DOCTYPE svg PUBLIC "-//W3C//DTD SVG 1.1//EN" "http://www.w3.org/Graphics/SVG/1.1/DTD/svg11.dtd"><svg t="1729668923201" class="icon" viewBox="0 0 1024 1024" version="1.1" xmlns="http://www.w3.org/2000/svg" p-id="6013" xmlns:xlink="http://www.w3.org/1999/xlink" width="200" height="200"><path d="M811.033 70c41.238 0 74.667 33.43 74.667 74.667V869.67a75.3 75.3 0 0 1-0.756 10.667H939c17.673 0 32 14.327 32 32 0 17.496-14.042 31.713-31.47 31.995l-0.53 0.005H86c-17.673 0-32-14.327-32-32 0-17.497 14.042-31.713 31.47-31.996l0.53-0.004h54.056a75.3 75.3 0 0 1-0.756-10.667V613.81c0-41.238 33.43-74.667 74.667-74.667h85.266a75.3 75.3 0 0 1 10.667 0.756V144.667C309.9 103.429 343.33 70 384.567 70z m-511.8 533.143h-85.266c-5.891 0-10.667 4.775-10.667 10.667V869.67c0 5.891 4.776 10.667 10.667 10.667h85.266c5.891 0 10.667-4.776 10.667-10.667V743.009c-0.659 16.91-14.44 30.451-31.446 30.727l-0.529 0.004H256.6c-17.673 0-32-14.327-32-32 0-17.496 14.042-31.713 31.47-31.995l0.53-0.005h21.325c17.252 0 31.316 13.653 31.976 30.743L309.9 613.81c0-5.892-4.776-10.667-10.667-10.667zM811.033 134H384.567c-5.891 0-10.667 4.776-10.667 10.667V869.67c0 5.891 4.776 10.667 10.667 10.667h426.466c5.891 0 10.667-4.776 10.667-10.667V144.667c0-5.891-4.776-10.667-10.667-10.667zM725.75 677.766v85.299h-85.3v-85.299h85.3z m0-149.272v85.298h-85.3v-85.298h85.3zM555.15 379.22v85.298h-85.3v-85.298h85.3z m170.6 0v85.298h-85.3v-85.298h85.3z m-170.6-149.273v85.299h-85.3v-85.299h85.3z m170.6 0v85.299h-85.3v-85.299h85.3z" p-id="6014" fill="#5291F6"></path></svg>