<?xml version="1.0" standalone="no"?><!DOCTYPE svg PUBLIC "-//W3C//DTD SVG 1.1//EN" "http://www.w3.org/Graphics/SVG/1.1/DTD/svg11.dtd"><svg t="1729668778384" class="icon" viewBox="0 0 1024 1024" version="1.1" xmlns="http://www.w3.org/2000/svg" p-id="4266" xmlns:xlink="http://www.w3.org/1999/xlink" width="200" height="200"><path d="M535.066947 865.118316C509.628632 865.118316 242.526316 564.655158 242.526316 403.078737a292.540632 292.540632 0 1 1 585.027368 0c0 161.576421-268.395789 462.039579-292.486737 462.039579z m0-716.8A254.760421 254.760421 0 0 0 280.252632 403.132632c0 140.773053 247.646316 424.259368 254.814315 424.259368 3.233684 0 254.760421-283.486316 254.760421-424.259368a254.760421 254.760421 0 0 0-254.760421-254.760421z m0 358.561684a103.801263 103.801263 0 1 1 0-207.602526 103.801263 103.801263 0 0 1 0 207.602526z m0-169.822316a66.074947 66.074947 0 1 0 0 132.096 66.074947 66.074947 0 0 0 0-132.096z" p-id="4267" fill="#ddb328"></path></svg>