<?xml version="1.0" standalone="no"?><!DOCTYPE svg PUBLIC "-//W3C//DTD SVG 1.1//EN" "http://www.w3.org/Graphics/SVG/1.1/DTD/svg11.dtd"><svg t="1730252716628" class="icon" viewBox="0 0 1024 1024" version="1.1" xmlns="http://www.w3.org/2000/svg" p-id="34767" xmlns:xlink="http://www.w3.org/1999/xlink" width="200" height="200"><path d="M877.568 306.688c0-100.864-81.92-182.784-182.784-182.784-73.728 0-137.216 43.52-165.888 106.496H265.728c-62.976 0-113.664 51.2-113.664 114.176v441.344c0 62.976 51.2 114.176 113.664 114.176h365.568c62.976 0 113.664-51.2 113.664-114.176V482.304c76.288-22.016 132.608-92.672 132.608-175.616z m-246.272 531.968H265.728c-28.16 0-52.224-24.064-52.224-52.736V344.576c0-28.672 24.064-52.736 52.224-52.736h246.784c-0.512 5.12-0.512 9.728-0.512 14.848 0 97.28 76.288 177.152 172.032 182.784v296.96c0 28.16-24.064 52.224-52.736 52.224z m62.976-410.624c-67.072 0-121.344-54.272-121.344-121.344s54.272-121.344 121.344-121.344 121.344 54.272 121.344 121.344-54.272 121.344-121.344 121.344z" p-id="34768" fill="#2c2c2c"></path><path d="M585.728 532.48H311.808c-16.896 0-30.72 13.824-30.72 30.72s13.824 30.72 30.72 30.72h273.92c16.896 0 30.72-13.824 30.72-30.72s-13.824-30.72-30.72-30.72zM311.808 449.024h137.728c16.896 0 30.72-13.824 30.72-30.72s-13.824-30.72-30.72-30.72H311.808c-16.896 0-30.72 13.824-30.72 30.72s13.824 30.72 30.72 30.72zM585.728 676.864H311.808c-16.896 0-30.72 13.824-30.72 30.72s13.824 30.72 30.72 30.72h273.92c16.896 0 30.72-13.824 30.72-30.72s-13.824-30.72-30.72-30.72zM742.912 275.968h-17.408v-17.408c0-16.896-13.824-30.72-30.72-30.72s-30.72 13.824-30.72 30.72v17.408h-17.408c-16.896 0-30.72 13.824-30.72 30.72s13.824 30.72 30.72 30.72h17.408v17.408c0 16.896 13.824 30.72 30.72 30.72s30.72-13.824 30.72-30.72v-17.408h17.408c16.896 0 30.72-13.824 30.72-30.72s-13.824-30.72-30.72-30.72z" p-id="34769" fill="#2c2c2c"></path></svg>